<svg xmlns="http://www.w3.org/2000/svg" style="display: none;">
  <symbol id="diskette" viewBox="0 0 32 32" fill="none">
    <rect x="4" y="4" width="24" height="24" rx="1" fill="currentColor"/>
    <rect x="6" y="6" width="20" height="16" fill="none" stroke="currentColor" stroke-width="0.5" opacity="0.3"/>
    <rect x="8" y="8" width="16" height="2" fill="currentColor" opacity="0.5"/>
    <rect x="8" y="12" width="16" height="2" fill="currentColor" opacity="0.5"/>
    <rect x="8" y="16" width="12" height="2" fill="currentColor" opacity="0.5"/>
    <rect x="22" y="20" width="2" height="6" fill="currentColor"/>
  </symbol>
  <symbol id="heart" viewBox="0 0 27 24" fill="none">
    <g class="heart">
      <path class="contour" d="M6 0H3V3H6V0ZM9 0H6V3H9V0ZM3 3H0V6H3V3ZM3 6H0V9H3V6ZM3 9H0V12H3V9ZM12 0H9V3H12V0ZM6 12H3V15H6V12ZM9 15H6V18H9V15ZM12 18H9V21H12V18ZM21 0H24V3H21V0ZM18 0H21V3H18V0ZM24 3H27V6H24V3ZM24 6H27V9H24V6ZM24 9H27V12H24V9ZM15 0H18V3H15V0ZM21 12H24V15H21V12ZM18 15H21V18H18V15ZM15 18H18V21H15V18ZM15 3H12V6H15V3ZM15 21H12V24H15V21Z" fill="var(--contour-color)"/>
      <path class="main-body" d="M6 3H3V6H6V3ZM9 6H6V9H9V6ZM12 3H9V6H12V3ZM6 9H3V12H6V9ZM9 9H6V12H9V9ZM9 12H6V15H9V12ZM12 6H9V9H12V6ZM12 15H9V18H12V15ZM12 12H9V15H12V12ZM21 3H24V6H21V3ZM18 3H21V6H18V3ZM21 6H24V9H21V6ZM18 6H21V9H18V6ZM15 3H18V6H15V3ZM21 9H24V12H21V9ZM18 9H21V12H18V9ZM18 12H21V15H18V12ZM15 6H18V9H15V6ZM15 15H18V18H15V15ZM15 12H18V15H15V12ZM15 15H12V18H15V15ZM15 18H12V21H15V18Z" fill="transparent"/>
      <path class="core" d="M12 9H9V12H12V9ZM15 9H18V12H15V9ZM15 9H12V12H15V9ZM15 6H12V9H15V6ZM15 12H12V15H15V12Z" fill="transparent"/>
    </g>
    <path class="sparks" d="M27 10H30V13H27V10ZM21 21H24V24H21V21ZM12 27H15V30H12V27ZM3 21H6V24H3V21ZM18 -6H21V-3H18V-6ZM24 -3H27V0H24V-3ZM0 -3H3V0H0V-3ZM6 -6H9V-3H6V-6ZM-3 10H0V13H-3V10Z" fill="var(--animation-fill-color)"/>
  </symbol>
  <symbol id="floppy" viewBox="0 0 39 39" fill="none">
    <rect width="3" height="3" fill="currentColor"/>
    <rect y="3" width="3" height="3" fill="currentColor"/>
    <rect y="6" width="3" height="3" fill="currentColor"/>
    <rect y="9" width="3" height="3" fill="currentColor"/>
    <rect y="12" width="3" height="3" fill="currentColor"/>
    <rect y="15" width="3" height="3" fill="currentColor"/>
    <rect y="18" width="3" height="3" fill="currentColor"/>
    <rect y="21" width="3" height="3" fill="currentColor"/>
    <rect y="24" width="3" height="3" fill="currentColor"/>
    <rect y="27" width="3" height="3" fill="currentColor"/>
    <rect y="30" width="3" height="3" fill="currentColor"/>
    <rect y="33" width="3" height="3" fill="currentColor"/>
    <rect y="36" width="3" height="3" fill="currentColor"/>
    <rect x="33" width="3" height="3" transform="rotate(90 33 0)" fill="currentColor"/>
    <rect x="30" width="3" height="3" transform="rotate(90 30 0)" fill="currentColor"/>
    <rect x="27" width="3" height="3" transform="rotate(90 27 0)" fill="currentColor"/>
    <rect x="24" width="3" height="3" transform="rotate(90 24 0)" fill="currentColor"/>
    <rect x="21" width="3" height="3" transform="rotate(90 21 0)" fill="currentColor"/>
    <rect x="18" width="3" height="3" transform="rotate(90 18 0)" fill="currentColor"/>
    <rect x="15" width="3" height="3" transform="rotate(90 15 0)" fill="currentColor"/>
    <rect x="12" width="3" height="3" transform="rotate(90 12 0)" fill="currentColor"/>
    <rect x="9" width="3" height="3" transform="rotate(90 9 0)" fill="currentColor"/>
    <rect x="6" width="3" height="3" transform="rotate(90 6 0)" fill="currentColor"/>
    <rect x="36" y="3" width="3" height="3" transform="rotate(90 36 3)" fill="currentColor"/>
    <rect x="9" y="6" width="3" height="3" transform="rotate(90 9 6)" fill="currentColor"/>
    <rect x="9" y="3" width="3" height="3" transform="rotate(90 9 3)" fill="currentColor"/>
    <rect x="9" y="9" width="3" height="3" transform="rotate(90 9 9)" fill="currentColor"/>
    <rect x="30" y="6" width="3" height="3" transform="rotate(90 30 6)" fill="currentColor"/>
    <rect x="30" y="3" width="3" height="3" transform="rotate(90 30 3)" fill="currentColor"/>
    <rect x="30" y="9" width="3" height="3" transform="rotate(90 30 9)" fill="currentColor"/>
    <rect x="24" y="6" width="3" height="3" transform="rotate(90 24 6)" fill="currentColor"/>
    <rect x="24" y="3" width="3" height="3" transform="rotate(90 24 3)" fill="currentColor"/>
    <rect x="24" y="9" width="3" height="3" transform="rotate(90 24 9)" fill="currentColor"/>
    <rect x="30" y="12" width="3" height="3" transform="rotate(90 30 12)" fill="currentColor"/>
    <rect x="27" y="12" width="3" height="3" transform="rotate(90 27 12)" fill="currentColor"/>
    <rect x="24" y="12" width="3" height="3" transform="rotate(90 24 12)" fill="currentColor"/>
    <rect x="21" y="12" width="3" height="3" transform="rotate(90 21 12)" fill="currentColor"/>
    <rect x="18" y="12" width="3" height="3" transform="rotate(90 18 12)" fill="currentColor"/>
    <rect x="15" y="12" width="3" height="3" transform="rotate(90 15 12)" fill="currentColor"/>
    <rect x="12" y="12" width="3" height="3" transform="rotate(90 12 12)" fill="currentColor"/>
    <rect x="9" y="12" width="3" height="3" transform="rotate(90 9 12)" fill="currentColor"/>
    <rect x="33" y="21" width="3" height="3" transform="rotate(90 33 21)" fill="currentColor"/>
    <rect x="30" y="21" width="3" height="3" transform="rotate(90 30 21)" fill="currentColor"/>
    <rect x="27" y="21" width="3" height="3" transform="rotate(90 27 21)" fill="currentColor"/>
    <rect x="24" y="21" width="3" height="3" transform="rotate(90 24 21)" fill="currentColor"/>
    <rect x="21" y="21" width="3" height="3" transform="rotate(90 21 21)" fill="currentColor"/>
    <rect x="18" y="21" width="3" height="3" transform="rotate(90 18 21)" fill="currentColor"/>
    <rect x="15" y="21" width="3" height="3" transform="rotate(90 15 21)" fill="currentColor"/>
    <rect x="12" y="21" width="3" height="3" transform="rotate(90 12 21)" fill="currentColor"/>
    <rect x="9" y="21" width="3" height="3" transform="rotate(90 9 21)" fill="currentColor"/>
    <rect x="33" y="24" width="3" height="3" transform="rotate(90 33 24)" fill="currentColor"/>
    <rect x="9" y="24" width="3" height="3" transform="rotate(90 9 24)" fill="currentColor"/>
    <rect x="33" y="27" width="3" height="3" transform="rotate(90 33 27)" fill="currentColor"/>
    <rect x="9" y="27" width="3" height="3" transform="rotate(90 9 27)" fill="currentColor"/>
    <rect x="33" y="30" width="3" height="3" transform="rotate(90 33 30)" fill="currentColor"/>
    <rect x="9" y="30" width="3" height="3" transform="rotate(90 9 30)" fill="currentColor"/>
    <rect x="9" y="33" width="3" height="3" transform="rotate(90 9 33)" fill="currentColor"/>
    <rect x="33" y="33" width="3" height="3" transform="rotate(90 33 33)" fill="currentColor"/>
    <rect x="36" y="36" width="3" height="3" transform="rotate(90 36 36)" fill="currentColor"/>
    <rect x="33" y="36" width="3" height="3" transform="rotate(90 33 36)" fill="currentColor"/>
    <rect x="30" y="36" width="3" height="3" transform="rotate(90 30 36)" fill="currentColor"/>
    <rect x="27" y="36" width="3" height="3" transform="rotate(90 27 36)" fill="currentColor"/>
    <rect x="24" y="36" width="3" height="3" transform="rotate(90 24 36)" fill="currentColor"/>
    <rect x="21" y="36" width="3" height="3" transform="rotate(90 21 36)" fill="currentColor"/>
    <rect x="18" y="36" width="3" height="3" transform="rotate(90 18 36)" fill="currentColor"/>
    <rect x="15" y="36" width="3" height="3" transform="rotate(90 15 36)" fill="currentColor"/>
    <rect x="12" y="36" width="3" height="3" transform="rotate(90 12 36)" fill="currentColor"/>
    <rect x="9" y="36" width="3" height="3" transform="rotate(90 9 36)" fill="currentColor"/>
    <rect x="6" y="36" width="3" height="3" transform="rotate(90 6 36)" fill="currentColor"/>
    <rect x="39" y="39" width="3" height="3" transform="rotate(-180 39 39)" fill="currentColor"/>
    <rect x="39" y="36" width="3" height="3" transform="rotate(-180 39 36)" fill="currentColor"/>
    <rect x="39" y="33" width="3" height="3" transform="rotate(-180 39 33)" fill="currentColor"/>
    <rect x="39" y="30" width="3" height="3" transform="rotate(-180 39 30)" fill="currentColor"/>
    <rect x="39" y="27" width="3" height="3" transform="rotate(-180 39 27)" fill="currentColor"/>
    <rect x="39" y="24" width="3" height="3" transform="rotate(-180 39 24)" fill="currentColor"/>
    <rect x="39" y="21" width="3" height="3" transform="rotate(-180 39 21)" fill="currentColor"/>
    <rect x="39" y="18" width="3" height="3" transform="rotate(-180 39 18)" fill="currentColor"/>
    <rect x="39" y="15" width="3" height="3" transform="rotate(-180 39 15)" fill="currentColor"/>
    <rect x="39" y="12" width="3" height="3" transform="rotate(-180 39 12)" fill="currentColor"/>
    <rect x="39" y="9" width="3" height="3" transform="rotate(-180 39 9)" fill="currentColor"/>
  </symbol>
</svg>

